<?xml version="1.0" standalone="no"?>
<!DOCTYPE svg PUBLIC "-//W3C//DTD SVG 20010904//EN"
 "http://www.w3.org/TR/2001/REC-SVG-20010904/DTD/svg10.dtd">
<svg version="1.0" xmlns="http://www.w3.org/2000/svg"
 width="1600.000000pt" height="1149.000000pt" viewBox="0 0 1600.000000 1149.000000"
 preserveAspectRatio="xMidYMid meet">
<metadata>
Created by potrace 1.16, written by Peter Selinger 2001-2019
</metadata>
<g transform="translate(0.000000,1149.000000) scale(0.100000,-0.100000)"
fill="#000000" stroke="none">
<path d="M10080 9943 c-19 -1 -89 -10 -155 -18 -66 -8 -160 -20 -210 -26 -92
-12 -225 -47 -357 -94 -40 -15 -86 -30 -103 -34 -57 -15 -300 -113 -340 -137
-46 -28 -85 -59 -85 -69 0 -4 6 -3 13 3 12 10 134 51 352 117 198 61 243 72
332 85 37 5 91 14 118 19 135 27 215 37 215 28 0 -6 33 -6 88 -1 114 10 545 4
794 -11 93 -6 109 -5 114 9 3 9 13 16 22 16 28 0 0 16 -68 38 -151 50 -559 92
-730 75z"/>
<path d="M10480 9709 c-36 -5 -105 -13 -155 -20 -115 -14 -229 -40 -380 -89
-259 -83 -322 -102 -365 -106 -44 -4 -151 -26 -221 -44 -20 -6 -45 -10 -56
-10 -11 0 -26 -6 -32 -14 -12 -14 -73 -19 -486 -36 -132 -6 -260 -15 -285 -21
-25 -6 -144 -15 -265 -20 -356 -13 -502 -27 -569 -52 -82 -31 -183 -131 -278
-277 -64 -97 -83 -136 -121 -250 -50 -151 -63 -203 -71 -272 -8 -68 -48 -143
-83 -155 -16 -6 -107 -7 -213 -4 -334 11 -1447 6 -1745 -8 -159 -7 -310 -11
-335 -9 -96 6 -198 1 -280 -16 -47 -9 -115 -21 -153 -26 -37 -5 -102 -18 -145
-29 -176 -44 -355 -91 -385 -100 -213 -67 -266 -86 -329 -115 -40 -19 -91 -42
-113 -51 -51 -23 -163 -77 -195 -96 -13 -8 -103 -69 -200 -136 -207 -143 -341
-273 -547 -527 -96 -118 -174 -240 -242 -375 -76 -152 -165 -361 -183 -428 -8
-34 -15 -60 -43 -153 -8 -30 -20 -73 -25 -95 -5 -22 -22 -98 -38 -170 -16 -71
-32 -149 -36 -173 -3 -24 -8 -46 -10 -50 -7 -11 -19 -122 -13 -122 5 0 12 30
42 175 24 116 35 163 55 225 22 71 100 262 111 275 5 5 9 18 9 28 0 11 22 56
49 101 27 45 59 99 71 121 123 220 198 337 210 330 4 -3 7 3 6 13 0 9 4 16 11
15 6 -1 17 5 25 15 12 15 11 16 -4 3 -32 -24 -19 -1 37 72 131 169 251 284
450 433 156 117 408 267 521 310 166 63 203 76 264 94 36 10 106 30 155 44
204 59 218 61 540 61 211 0 324 -4 380 -14 181 -31 436 -104 669 -190 171 -64
395 -190 636 -359 29 -20 110 -93 234 -212 82 -79 259 -295 369 -451 42 -61
119 -205 177 -334 12 -27 36 -78 51 -113 16 -34 29 -68 29 -74 0 -6 33 -92 74
-192 107 -260 165 -448 171 -552 2 -32 11 -88 20 -124 24 -97 31 -139 96 -580
6 -36 14 -117 19 -180 4 -63 14 -171 21 -239 10 -98 10 -147 1 -230 -7 -59
-12 -140 -12 -181 0 -82 -33 -374 -54 -485 -22 -109 -79 -314 -137 -485 -114
-337 -120 -353 -226 -565 -100 -199 -135 -264 -176 -325 -34 -50 -173 -215
-257 -303 -30 -32 -58 -66 -61 -75 -9 -23 -139 -146 -295 -280 -125 -106 -155
-128 -138 -100 7 11 -21 -6 -36 -22 -3 -3 -20 -16 -38 -29 -18 -12 -30 -26
-27 -30 2 -5 -5 -17 -18 -27 l-22 -19 19 23 c11 12 16 22 13 22 -5 0 -88 -56
-204 -138 -10 -7 -3 -5 15 3 17 9 32 13 32 10 0 -6 -107 -58 -252 -123 -37
-17 -68 -27 -70 -22 -2 4 -14 4 -27 -1 -48 -18 -9 -21 164 -10 303 19 271 9
-60 -19 -77 -6 -144 -16 -150 -22 -7 -7 6 -9 45 -5 30 4 91 9 135 12 136 10
317 38 303 46 -7 5 19 9 62 9 41 0 138 9 215 21 77 11 187 24 245 29 298 27
322 34 412 125 l57 58 298 23 c425 32 532 42 668 60 111 15 300 53 370 75 17
5 82 25 145 44 63 20 138 46 165 60 462 225 468 228 570 223 33 -2 614 -3
1290 -3 1499 0 1781 11 2156 83 47 9 175 63 219 93 14 9 51 33 82 54 32 20
101 85 155 143 54 59 100 109 103 112 3 3 22 25 42 50 45 57 74 114 97 193 17
58 26 95 51 227 7 33 13 292 17 654 2 330 9 611 14 624 16 41 23 1169 11 1652
-15 580 -17 1006 -7 1421 l8 335 -37 135 c-20 74 -48 157 -62 186 -36 73 -109
141 -259 241 -106 71 -149 93 -240 124 -60 20 -120 37 -131 38 -12 0 -27 7
-34 15 -6 8 -44 24 -83 36 -63 19 -105 33 -242 81 -16 6 -88 39 -160 73 -158
76 -209 99 -255 115 -112 40 -234 101 -282 141 -55 46 -86 59 -136 58 -61 -1
-105 -22 -134 -65 -15 -21 -27 -46 -28 -54 0 -9 -8 -27 -17 -40 -30 -42 -23
-131 33 -440 8 -47 20 -114 25 -150 5 -36 11 -72 14 -80 4 -8 8 -44 11 -80 6
-92 23 -248 39 -365 28 -205 34 -253 45 -360 6 -60 19 -168 28 -240 13 -102
17 -222 19 -555 0 -234 5 -438 10 -454 5 -16 22 -39 37 -50 25 -20 44 -21 252
-24 123 -2 224 -8 224 -13 0 -5 8 -8 18 -7 71 6 145 -43 220 -143 103 -139
126 -209 126 -389 1 -131 -7 -175 -52 -295 -28 -71 -96 -155 -127 -155 -8 0
-15 -4 -15 -9 0 -25 -196 -61 -377 -68 -132 -6 -133 -6 -133 16 0 12 6 23 13
25 51 13 98 33 137 57 41 25 50 38 77 106 56 141 65 216 39 352 -10 53 -24 87
-50 125 -57 82 -146 176 -180 190 -18 7 -68 45 -112 85 -43 39 -83 71 -87 71
-13 0 -1 -628 16 -903 30 -457 37 -542 47 -617 13 -100 12 -190 -1 -229 -10
-28 -15 -31 -53 -31 -42 0 -90 -12 -132 -32 -42 -20 -117 -176 -150 -308 -16
-65 -18 -227 -4 -314 5 -33 15 -101 21 -151 11 -80 16 -94 45 -123 19 -19 42
-32 58 -32 21 0 27 -7 36 -40 15 -54 7 -74 -54 -138 -94 -100 -197 -177 -301
-226 -109 -52 -146 -59 -390 -71 -151 -7 -373 -23 -579 -41 -88 -7 -161 -12
-162 -11 -2 1 25 23 59 47 33 25 93 74 131 110 120 111 365 362 408 420 252
335 267 358 346 515 90 181 160 339 193 435 12 36 36 97 54 135 45 99 110 293
125 375 4 25 16 83 25 130 37 188 52 447 36 625 -39 416 -46 460 -113 660 -51
155 -165 435 -186 458 -18 20 -18 35 -3 223 16 185 4 340 -48 659 -36 218 -56
307 -111 500 -5 17 -13 46 -19 65 -9 32 -25 77 -95 265 -60 164 -150 282 -306
407 -76 60 -258 128 -345 128 -71 0 -215 30 -256 53 -100 57 -187 182 -224
322 -8 33 -22 81 -30 106 -17 49 -14 133 4 167 15 29 158 159 221 202 135 91
410 200 610 241 25 5 79 18 120 29 146 40 275 63 515 90 175 19 186 21 180 31
-8 11 -544 10 -635 -2z m-3140 -1673 c52 -21 109 -45 125 -54 40 -21 91 -63
87 -74 -1 -4 7 -8 18 -8 11 0 20 -4 20 -10 0 -7 -158 -10 -454 -10 -391 0
-455 2 -466 15 -7 8 -19 15 -27 15 -8 0 -28 14 -46 31 -55 56 -135 109 -163
109 -15 0 -24 3 -20 8 10 9 349 19 621 18 l210 -1 95 -39z m572 -369 c5 -9 31
-42 58 -74 28 -31 50 -60 50 -65 0 -5 11 -33 24 -61 14 -29 26 -58 28 -65 6
-25 -74 -40 -247 -46 -93 -3 -262 -10 -374 -15 -205 -9 -251 -5 -251 23 0 8
-4 16 -8 18 -5 2 -41 46 -80 100 -39 53 -75 99 -81 102 -18 12 -1 34 32 41 18
4 95 11 172 15 136 8 440 36 480 44 11 3 58 3 104 2 66 -2 85 -6 93 -19z
m1135 -305 c49 -64 98 -132 108 -149 11 -18 25 -33 32 -33 7 0 13 -4 13 -9 0
-5 14 -14 30 -20 17 -5 30 -8 30 -6 0 10 -100 167 -157 248 -35 49 -59 85 -53
82 19 -11 160 -217 228 -330 60 -102 180 -334 215 -415 8 -19 22 -51 30 -70 8
-19 29 -73 47 -120 17 -47 36 -96 42 -110 13 -32 29 -81 63 -195 15 -49 31
-101 35 -115 12 -37 69 -277 89 -375 53 -263 86 -540 102 -864 16 -318 -4
-674 -61 -1086 -13 -97 -77 -414 -89 -445 -12 -32 -14 -16 -2 30 5 19 13 60
19 90 6 30 16 79 23 108 6 29 8 60 4 70 -6 15 -8 14 -20 -8 -7 -14 -17 -25
-22 -25 -7 0 -19 -40 -56 -202 -10 -40 -22 -82 -27 -95 -10 -23 -10 -23 -5 2
56 251 79 367 94 475 7 44 16 109 22 145 34 221 51 888 30 1140 -33 377 -86
679 -186 1045 -36 135 -124 385 -179 510 -139 317 -260 528 -428 752 -43 57
-74 102 -69 99 5 -3 49 -59 98 -124z m-730 -316 c33 -36 62 -88 93 -165 l21
-54 -26 -23 c-18 -15 -46 -25 -83 -29 -32 -4 -100 -14 -152 -22 -52 -8 -124
-18 -160 -23 -36 -4 -99 -13 -140 -19 -41 -5 -115 -11 -164 -13 -97 -3 -90 -7
-124 67 -24 52 -80 153 -103 187 -25 34 -24 44 4 52 21 7 21 7 2 15 -14 6 7
10 65 14 204 11 439 29 490 36 30 4 99 8 152 8 95 1 97 0 125 -31z m255 -623
c15 -17 67 -147 90 -223 6 -19 13 -62 15 -95 l5 -61 -89 -12 c-48 -6 -144 -17
-213 -23 -69 -6 -150 -15 -180 -20 -185 -33 -240 -32 -240 3 0 11 -22 79 -49
151 -66 178 -66 177 -44 178 17 1 17 2 1 6 -27 7 -22 21 10 27 51 11 167 27
252 36 115 11 302 39 308 45 3 3 31 5 62 5 42 0 61 -5 72 -17z m219 -819 c55
-52 69 -87 84 -201 8 -59 13 -115 12 -123 -6 -38 -15 -40 -186 -40 -92 0 -261
-5 -375 -11 -132 -6 -212 -7 -218 -1 -5 5 -16 54 -23 108 -8 55 -19 119 -25
144 -12 46 -7 90 10 90 6 0 10 6 10 14 0 9 29 16 103 24 56 6 140 16 187 21
47 5 154 8 238 6 l153 -3 30 -28z m155 -744 c42 0 51 -15 70 -123 21 -122 19
-232 -6 -266 l-19 -28 -168 -6 c-92 -3 -217 -10 -278 -16 -248 -25 -286 -27
-294 -17 -14 18 -21 74 -31 236 -11 172 -9 180 52 180 15 0 28 4 28 9 0 4 17
12 38 16 42 8 501 24 546 19 16 -2 44 -4 62 -4z m1 -985 c-8 -59 -39 -147 -86
-248 l-38 -83 -244 -13 c-134 -7 -305 -16 -379 -20 -129 -7 -159 -3 -144 21
15 24 47 175 70 336 4 29 8 32 39 32 24 0 35 -5 35 -15 0 -8 5 -15 11 -15 6 0
9 6 6 13 -4 10 39 13 212 15 119 2 252 6 296 11 44 4 113 9 154 10 l74 1 -6
-45z m-329 -872 c-30 -70 -58 -108 -89 -125 -19 -10 -32 -22 -29 -26 3 -4 -29
-11 -70 -15 -41 -5 -80 -13 -87 -18 -16 -14 -471 -24 -502 -12 -32 13 -34 48
-6 93 12 19 30 54 40 77 l19 43 365 3 c201 1 367 3 368 5 2 1 -3 -10 -9 -25z
m-419 -722 c12 -7 9 -17 -13 -55 -22 -38 -32 -46 -64 -51 -20 -3 -71 -13 -112
-22 -41 -8 -104 -19 -139 -24 -36 -5 -80 -14 -99 -20 -45 -15 -448 -17 -463
-2 -7 7 3 26 29 59 38 49 39 49 103 52 35 2 127 10 204 18 480 53 534 57 554
45z m-599 -586 c0 -15 -110 -65 -142 -65 -20 0 -40 -4 -43 -10 -3 -5 -21 -10
-40 -10 -19 0 -46 -5 -62 -11 -50 -19 -403 -45 -461 -34 l-35 7 34 33 c39 40
65 44 399 70 107 8 215 16 240 18 84 7 110 7 110 2z"/>
<path d="M11706 9068 c-24 -34 -30 -52 -30 -97 0 -31 3 -75 8 -98 8 -38 6 -44
-19 -67 -27 -25 -33 -26 -144 -26 -185 0 -345 42 -811 211 -135 49 -292 84
-433 99 -111 11 -149 7 -334 -35 -55 -13 -13 -20 115 -20 75 -1 169 -6 207
-13 39 -7 97 -18 130 -24 147 -26 353 -95 542 -179 78 -35 104 -45 178 -67
141 -43 261 -69 402 -87 24 -3 69 -12 100 -21 37 -9 92 -14 151 -12 93 2 93 2
107 -26 8 -16 15 -47 15 -71 0 -91 106 -162 355 -235 77 -23 150 -45 161 -50
30 -12 228 -59 339 -80 33 -6 76 -16 96 -21 47 -12 288 -12 381 1 40 5 115 14
166 21 l93 12 30 43 c16 24 37 67 46 96 9 29 22 72 29 96 18 54 17 78 0 133
-8 24 -17 57 -21 73 -6 26 -8 28 -43 21 -20 -4 -62 -8 -92 -9 -30 -2 -72 -4
-92 -4 -27 -2 -38 -7 -43 -22 -3 -11 -12 -20 -20 -20 -8 0 -11 7 -8 20 5 18 0
20 -54 20 -55 0 -61 -2 -74 -27 l-13 -28 -4 32 -3 31 -82 7 c-56 5 -82 4 -85
-4 -2 -6 -12 -21 -22 -33 l-19 -23 -1 22 c0 12 5 25 10 28 22 14 6 22 -66 34
-64 11 -78 10 -85 -1 -5 -7 -9 -16 -9 -20 0 -5 -5 -8 -10 -8 -6 0 -8 10 -4 24
5 21 1 24 -33 29 -21 4 -52 9 -69 13 -28 5 -32 3 -38 -20 -9 -36 -30 -34 -23
3 6 27 4 29 -31 35 -62 10 -92 7 -92 -8 0 -8 -5 -18 -11 -22 -8 -5 -10 1 -7
18 4 23 0 25 -61 41 l-65 17 -23 -27 c-20 -25 -22 -26 -23 -7 0 11 5 25 10 30
7 7 -11 17 -54 32 -75 26 -76 26 -76 8 0 -7 -8 -20 -17 -27 -15 -12 -16 -12
-11 6 3 11 9 27 12 36 5 12 0 18 -21 24 -45 11 -53 22 -41 58 6 18 17 39 25
49 13 14 18 14 41 2 31 -16 71 -19 56 -5 -5 6 -30 15 -55 22 -43 12 -49 11
-80 -11 -19 -14 -35 -28 -37 -32 -5 -12 -32 -10 -32 2 0 6 -6 10 -14 8 -8 -2
-27 11 -43 27 -89 90 -158 145 -183 145 -8 0 -28 -19 -44 -42z"/>
<path d="M13712 8178 c-6 -6 17 -37 68 -89 78 -79 170 -204 170 -231 0 -8 4
-18 9 -23 16 -19 59 -141 79 -230 36 -154 52 -255 62 -405 14 -211 14 -213
-17 -246 -62 -66 -116 -158 -121 -206 -6 -61 8 -67 91 -42 70 22 181 24 217 4
30 -16 54 -40 68 -66 16 -30 52 -169 52 -199 0 -16 4 -23 14 -19 11 4 14 -63
19 -398 12 -800 12 -2406 0 -2618 -12 -205 -10 -229 21 -343 37 -134 7 -261
-113 -486 -10 -19 -21 -30 -24 -24 -4 5 -9 46 -12 89 -2 43 -9 135 -15 204 -5
69 -10 134 -10 145 0 12 -3 15 -9 10 -5 -6 -14 -64 -21 -130 -16 -178 -48
-372 -72 -440 -27 -78 -87 -183 -132 -233 -69 -75 -186 -149 -249 -157 -18 -3
-54 -9 -82 -14 -27 -5 -77 -14 -110 -19 -33 -6 -116 -24 -185 -41 -69 -16
-142 -33 -162 -37 -61 -10 -45 -27 20 -20 31 3 120 8 197 11 428 18 645 105
768 308 52 86 54 92 73 182 15 70 23 85 122 225 82 114 102 160 147 331 18 68
14 120 -16 239 -7 25 -12 72 -12 105 -1 119 21 734 27 744 3 5 9 186 12 403 6
404 10 460 56 673 18 82 22 134 22 295 1 135 -3 207 -12 235 -42 125 -72 277
-72 358 0 72 -14 214 -30 302 -5 28 -21 115 -36 195 -40 224 -53 280 -85 354
-16 37 -29 74 -29 81 0 19 -35 42 -95 60 -49 16 -51 18 -52 53 -2 55 -22 244
-39 357 -32 213 -72 325 -175 486 -60 94 -112 163 -149 196 -34 31 -166 83
-178 71z"/>
<path d="M10864 7957 c-82 -69 -67 -290 26 -394 57 -63 88 -67 152 -19 48 37
68 84 68 160 0 66 -42 194 -70 211 -6 4 -7 -6 -2 -27 14 -63 8 -176 -10 -194
-15 -16 -17 -14 -23 22 -4 21 -23 68 -41 104 -38 72 -41 95 -17 122 19 21 16
26 -23 34 -23 4 -37 0 -60 -19z"/>
<path d="M4113 7830 c-51 -11 -199 -30 -308 -40 -118 -12 -189 -28 -290 -68
-113 -44 -292 -129 -301 -143 -9 -15 -116 -82 -131 -82 -6 0 -11 -3 -10 -7 1
-4 -47 -47 -108 -97 -123 -101 -225 -205 -342 -350 -110 -138 -156 -208 -270
-415 -25 -47 -40 -64 -46 -55 -5 8 -6 5 -3 -9 4 -12 -6 -44 -23 -80 -17 -32
-30 -53 -30 -46 -1 7 8 31 20 53 11 23 18 43 16 45 -8 8 -48 -88 -43 -102 3
-8 -4 -41 -14 -75 -11 -34 -20 -68 -20 -75 0 -8 -5 -14 -11 -14 -5 0 -7 5 -4
10 3 6 0 10 -8 10 -8 0 -17 -9 -20 -20 -3 -11 -1 -18 3 -15 5 3 5 -5 1 -17 -3
-13 -16 -54 -28 -93 -12 -38 -29 -99 -38 -135 -9 -36 -34 -132 -55 -213 -41
-157 -81 -392 -88 -517 -2 -41 -8 -80 -13 -86 -16 -19 -23 -466 -10 -584 7
-58 16 -141 21 -185 38 -339 58 -468 85 -560 9 -27 22 -77 30 -110 21 -90 52
-209 63 -247 59 -192 107 -331 118 -343 8 -7 14 -20 14 -27 0 -7 9 -28 20 -46
11 -18 20 -37 20 -42 0 -20 99 -218 158 -318 34 -57 62 -106 62 -109 0 -3 8
-17 18 -31 11 -15 35 -58 56 -96 33 -63 180 -284 219 -331 9 -11 58 -72 109
-135 131 -162 241 -271 388 -383 78 -60 100 -81 100 -93 0 -9 4 -13 8 -10 5 3
19 -6 30 -19 21 -24 40 -25 68 -3 7 5 26 2 47 -7 50 -21 66 -19 60 5 -3 11 -9
17 -14 14 -5 -3 -7 -9 -4 -14 11 -17 -52 20 -71 42 -10 13 -15 20 -10 16 5 -4
15 0 23 10 10 14 12 14 8 1 -7 -19 20 -45 30 -29 3 6 12 7 18 3 19 -12 45 -14
51 -4 7 11 -20 24 -60 29 -7 1 -15 9 -18 18 -5 12 -2 15 9 10 11 -4 14 -2 8 8
-8 14 -256 196 -267 196 -3 0 -3 -7 1 -15 3 -9 7 -14 10 -12 6 6 69 -56 76
-75 4 -10 13 -19 22 -19 29 -3 33 -4 42 -13 4 -5 3 -6 -4 -2 -6 3 -14 3 -16
-1 -3 -5 13 -21 34 -38 40 -31 49 -52 24 -52 -8 0 -15 4 -15 8 0 13 -46 59
-59 59 -7 0 -9 5 -6 10 3 5 0 10 -8 10 -8 0 -18 8 -22 18 -6 16 -7 16 -21 -2
-13 -19 -14 -19 -14 -2 0 14 -3 16 -13 7 -11 -8 -18 -7 -31 7 -9 10 -13 22 -9
27 5 4 3 5 -3 2 -23 -13 -236 221 -330 362 -27 41 -52 79 -56 85 -48 70 -128
211 -125 219 2 6 62 -45 133 -114 193 -184 295 -273 394 -344 30 -22 57 -42
60 -46 11 -13 150 -107 235 -158 50 -30 105 -65 123 -79 32 -23 51 -25 37 -3
-3 6 -32 29 -63 50 -66 46 -164 139 -242 231 -30 35 -65 75 -78 88 -16 17 -20
28 -13 35 9 9 27 3 166 -66 l40 -19 -30 32 c-16 17 -46 39 -65 49 -20 10 -34
24 -34 33 1 9 -4 14 -11 12 -12 -5 -133 117 -189 192 -99 130 -173 231 -180
244 -5 8 36 -31 90 -88 54 -56 105 -102 112 -102 19 0 14 49 -10 89 -22 34
-20 34 41 -19 34 -30 99 -88 144 -128 80 -71 277 -223 326 -251 78 -44 296
-151 356 -175 118 -48 139 -57 172 -74 49 -25 49 -9 1 23 -128 84 -413 365
-413 408 0 12 -4 22 -10 22 -19 0 -35 16 -34 33 0 12 3 10 10 -6 5 -13 13 -20
19 -17 6 4 7 11 4 17 -15 24 19 -1 78 -57 101 -97 191 -169 297 -240 55 -36
103 -65 106 -65 4 0 19 -8 33 -19 54 -38 261 -145 347 -181 134 -55 164 -65
285 -100 41 -12 85 -28 97 -36 20 -13 23 -12 32 5 8 14 7 22 -4 31 -10 8 -15
9 -15 2 0 -15 -42 3 -245 103 -94 46 -186 98 -205 115 -19 18 -55 43 -80 58
-25 14 -95 63 -157 109 -61 46 -116 83 -122 83 -6 0 -11 6 -11 14 0 8 -4 16
-9 18 -17 6 -134 111 -260 233 -134 131 -254 272 -247 292 3 7 0 15 -6 19 -7
5 -8 2 -3 -7 11 -19 -23 17 -66 71 -47 59 -147 217 -192 305 -57 111 -171 353
-201 430 -16 39 -39 95 -51 126 -13 31 -29 82 -36 113 -8 31 -16 56 -20 56
-11 0 -49 116 -79 240 -32 135 -49 286 -61 550 -10 216 -9 258 6 355 9 61 19
128 21 150 10 100 26 217 40 295 8 47 20 114 26 150 5 36 14 76 18 90 5 14 18
59 31 100 33 114 144 377 192 455 88 144 232 348 303 428 243 278 322 352 519
483 119 79 335 194 364 194 10 0 21 4 27 9 10 9 59 28 109 41 146 40 184 46
430 71 129 13 265 5 341 -21 30 -11 54 -15 54 -11 0 14 -108 109 -209 185 -52
39 -103 79 -113 89 -10 9 -24 17 -30 17 -9 0 -8 -4 2 -10 22 -14 6 -12 -24 3
-14 8 -24 16 -21 18 2 3 -4 5 -13 6 -9 0 -66 19 -127 41 -60 22 -130 46 -155
52 -25 7 -49 16 -55 20 -48 38 -367 84 -552 78 -66 -1 -119 0 -116 5 5 8 -7 8
-64 -3z"/>
<path d="M11036 6855 c-54 -54 -69 -135 -45 -246 9 -40 21 -62 55 -95 42 -42
46 -44 103 -44 57 0 61 2 94 40 33 39 34 42 30 113 -6 108 -48 215 -85 217 -4
0 -1 -19 7 -41 8 -23 15 -74 15 -114 0 -58 -4 -75 -19 -89 -25 -23 -38 -14
-50 32 -15 60 -22 211 -11 231 7 14 6 20 -6 25 -32 12 -54 5 -88 -29z"/>
<path d="M1805 4953 c2 -15 9 -201 15 -413 6 -212 16 -425 21 -475 20 -187 28
-253 43 -340 33 -193 51 -289 66 -344 5 -20 25 -103 45 -186 33 -138 75 -291
95 -340 45 -114 202 -443 260 -545 181 -317 519 -710 795 -925 379 -295 679
-429 1055 -471 48 -5 58 -9 40 -14 -21 -5 -16 -7 24 -13 27 -4 67 -6 90 -6
l41 2 -35 7 c-22 5 22 8 115 9 83 1 161 4 175 6 22 5 22 4 5 -4 -37 -18 106
-10 180 9 l70 19 -70 -4 -70 -4 55 10 c141 27 241 49 310 69 41 12 111 30 155
41 120 30 155 41 215 67 93 39 191 93 280 152 47 31 92 59 100 62 25 9 235
141 276 173 123 96 334 309 424 428 41 54 90 117 107 140 29 36 73 112 181
307 108 196 147 284 222 510 74 224 132 499 155 745 28 286 31 444 13 573 -9
67 -14 82 -28 82 -10 0 -21 -7 -24 -17 -4 -9 -9 -107 -12 -217 -9 -370 -44
-606 -139 -941 -12 -44 -28 -104 -35 -134 -49 -207 -254 -600 -409 -780 -25
-30 -68 -87 -96 -126 -106 -153 -413 -465 -570 -580 -22 -17 -42 -32 -45 -35
-5 -5 -25 -16 -135 -75 -141 -76 -241 -126 -290 -144 -27 -10 -81 -31 -120
-45 -38 -14 -83 -26 -100 -25 -16 0 -24 3 -17 6 6 2 12 8 12 12 0 9 -50 2 -65
-9 -5 -4 -40 -15 -77 -26 -40 -11 -62 -22 -55 -26 7 -4 -3 -8 -23 -8 -19 0
-84 -7 -145 -15 -60 -8 -171 -15 -245 -14 -159 0 -538 32 -595 50 -22 7 -43
12 -47 11 -5 -1 -8 2 -8 6 0 4 -10 8 -21 9 -22 2 -110 40 -119 52 -3 4 -27 15
-55 26 -27 10 -73 33 -102 52 -29 18 -57 33 -64 33 -11 0 -69 33 -94 52 -5 5
-56 39 -111 76 -119 78 -158 109 -228 177 -28 28 -78 75 -111 106 -59 56 -309
316 -360 374 -14 17 -58 77 -97 135 -39 58 -80 115 -92 126 -11 12 -56 91 -98
175 -42 85 -95 183 -117 219 -54 91 -135 311 -220 605 -11 39 -30 101 -41 138
-21 74 -71 294 -89 392 -23 135 -51 304 -60 370 -6 39 -15 99 -21 135 -10 64
-25 175 -55 395 -8 61 -15 124 -15 142 0 17 -4 35 -10 38 -6 4 -8 -5 -5 -22z"/>
<path d="M4615 1427 c-146 -9 -185 -15 -185 -27 0 -5 34 -6 77 -3 53 4 74 3
69 -5 -7 -11 141 -9 259 4 33 4 68 6 78 6 9 0 17 4 17 10 0 6 -15 8 -35 6 -34
-4 -47 5 -22 16 15 7 -99 4 -258 -7z"/>
</g>
</svg>
